HIERARCHY
ROOT Hips
{
  OFFSET 0 89.5177 0.535
  CHANNELS 6 Xposition Yposition Zposition Zrotation Xrotation Yrotation
  JOINT Spine
  {
    OFFSET 12.0259 -0.162855 1.69034e-005
    CHANNELS 3 Zrotation Xrotation Yrotation
    JOINT Spine1
    {
      OFFSET 15.3169 -0.0121922 0
      CHANNELS 3 Zrotation Xrotation Yrotation
      JOINT Spine2
      {
        OFFSET 15.3176 -0.0121908 0
        CHANNELS 3 Zrotation Xrotation Yrotation
        JOINT Neck
        {
          OFFSET 19.9142 1.56338 0
          CHANNELS 3 Zrotation Xrotation Yrotation
          JOINT Head
          {
            OFFSET 6.92651 0 0
            CHANNELS 3 Zrotation Xrotation Yrotation
            End Site
            {
              OFFSET 20.7666 0 0
            }
          }
          JOINT LeftShoulder
          {
            OFFSET -6.20654 0.708824 7.28219
            CHANNELS 3 Zrotation Xrotation Yrotation
            JOINT LeftArm
            {
              OFFSET 14.108 0 -1.52588e-005
              CHANNELS 3 Zrotation Xrotation Yrotation
              JOINT LeftForeArm
              {
                OFFSET 28.5802 0 0
                CHANNELS 3 Zrotation Xrotation Yrotation
                JOINT LeftHand
                {
                  OFFSET 27.092 0 0
                  CHANNELS 3 Zrotation Xrotation Yrotation
                  End Site
                  {
                    OFFSET 9.55928 -0.186424 0.145352
                  }
                }
              }
            }
          }
          JOINT RightShoulder
          {
            OFFSET -6.20654 0.708866 -7.28218
            CHANNELS 3 Zrotation Xrotation Yrotation
            JOINT RightArm
            {
              OFFSET 14.108 0 1.52588e-005
              CHANNELS 3 Zrotation Xrotation Yrotation
              JOINT RightForeArm
              {
                OFFSET 28.5802 0 0
                CHANNELS 3 Zrotation Xrotation Yrotation
                JOINT RightHand
                {
                  OFFSET 27.092 0 0
                  CHANNELS 3 Zrotation Xrotation Yrotation
                  End Site
                  {
                    OFFSET 9.55929 -0.186417 -0.145354
                  }
                }
              }
            }
          }
        }
      }
    }
  }
  JOINT LeftUpLeg
  {
    OFFSET 0.005 -0.535 8.837
    CHANNELS 3 Zrotation Xrotation Yrotation
    JOINT LeftLeg
    {
      OFFSET 39.9035 0 0
      CHANNELS 3 Zrotation Xrotation Yrotation
      JOINT LeftFoot
      {
        OFFSET 39.6689 0 0
        CHANNELS 3 Zrotation Xrotation Yrotation
        JOINT LeftToe
        {
          OFFSET 10.1624 13.6296 0
          CHANNELS 3 Zrotation Xrotation Yrotation
          End Site
          {
            OFFSET 8.38147 0 0
          }
        }
      }
    }
  }
  JOINT RightUpLeg
  {
    OFFSET 0.005 -0.535 -8.837
    CHANNELS 3 Zrotation Xrotation Yrotation
    JOINT RightLeg
    {
      OFFSET 39.9035 0 0
      CHANNELS 3 Zrotation Xrotation Yrotation
      JOINT RightFoot
      {
        OFFSET 39.6689 0 0
        CHANNELS 3 Zrotation Xrotation Yrotation
        JOINT RightToe
        {
          OFFSET 10.1624 13.6296 0
          CHANNELS 3 Zrotation Xrotation Yrotation
          End Site
          {
            OFFSET 8.38147 0 0
          }
        }
      }
    }
  }
}
MOTION
Frames:	12
Frame Time:	0.0333333
167.082 89.9797 185.948 -95.398 40.4689 174.361 1.58382 -3.07358 3.31541 3.35029 -6.0485 6.72901 3.35029 -6.0485 6.729 -8.30748e-012 -9.0191e-006 -5.27751e-005 48.4657 0.20067 21.5704 179.93 0.313673 -77.4249 -18.1264 10.0607 72.1374 -70.2898 0 1.59028e-015 -51.4698 -40.7293 -58.9444 -177.228 6.76445 67.6565 25.0363 17.9943 -52.7912 -25.3018 5.96354e-016 -1.19271e-015 -34.2586 38.7488 41.7894 -22.2902 16.4142 -171.886 -64.034 1.27222e-014 1.59028e-015 -6.68911 16.6649 -17.8979 90 2.33572e-015 1.27222e-014 -16.1802 -7.2519 -172.904 -25.635 -6.36111e-015 -0 11.1847 -7.18595 8.14367 90 7.95139e-016 3.18055e-015 
171.542 90.9454 185.374 -94.8049 44.7128 175.538 1.69405 -2.64471 2.87726 3.52446 -5.19924 5.84081 3.52446 -5.19924 5.8408 -8.30589e-012 -9.0191e-006 -5.27751e-005 54.3299 3.39871 21.3993 -179.87 -0.583585 -77.429 -13.496 12.1111 71.3979 -73.1858 -3.18055e-015 1.59028e-015 -54.3878 -42.8387 -64.7553 -177.107 7.17295 67.9647 21.1956 14.2227 -54.4639 -31.8394 1.19271e-015 2.18663e-015 -35.8963 40.7955 42.5989 -25.2131 12.8642 -172.565 -63.4538 0 -1.59028e-015 -2.27855 13.3495 -14.3004 90 2.38542e-015 3.18055e-015 -12.0476 -2.69616 -175.68 -20.197 -3.18056e-015 -1.59028e-015 9.16937 -8.30116 9.3593 90 1.59028e-015 -0 
175.733 91.3217 184.4 -94.9945 48.1907 177.211 1.79928 -2.20199 2.45972 3.6955 -4.32306 4.99295 3.6955 -4.32306 4.99294 -8.30748e-012 -9.0191e-006 -5.27751e-005 58.0844 4.16885 21.4943 -179.84 -0.767255 -78.2414 -10.8449 11.3915 70.4489 -75.2582 -1.59028e-015 -4.77083e-015 -58.569 -41.594 -71.2286 -176.95 7.97629 68.9939 16.5111 9.7682 -56.4472 -39.0501 3.18055e-015 -2.38542e-015 -37.3787 42.4996 42.982 -27.7531 7.08237 -173.717 -60.3451 -6.36111e-015 -9.54166e-015 1.15692 10.9411 -11.7319 90 1.59028e-015 -0 -9.91728 -0.0189193 -179.264 -17.2563 9.54167e-015 1.19271e-015 7.91018 -9.72438 10.9008 90 -7.95139e-016 6.36111e-015 
179.71 91.3025 183.121 -95.8515 52.2276 178.939 1.94287 -1.7078 2.1148 3.95001 -3.34124 4.28923 3.95001 -3.34124 4.28922 -8.3043e-012 -9.0191e-006 -5.27751e-005 60.1891 4.08141 21.1186 -179.78 -1.117 -78.8614 -10.3269 8.4962 69.1473 -77.4712 0 1.59028e-015 -63.0145 -37.2569 -76.1755 -176.878 8.46899 69.6791 11.1413 5.72987 -57.3253 -46.9915 -3.18055e-015 -1.59028e-015 -38.4394 43.029 42.5239 -29.4757 0.762746 -173.772 -54.599 -3.18055e-015 -6.36111e-015 3.23807 8.49531 -9.07625 90 -1.59028e-015 -3.18055e-015 -9.46506 2.41521 177.355 -15.9271 6.36111e-015 4.37326e-015 6.82152 -11.5749 12.9271 90 7.95139e-016 6.36111e-015 
183.71 90.8794 181.574 -97.7477 56.1348 -178.848 2.01866 -1.48074 1.86602 4.08645 -2.89354 3.78504 4.08645 -2.89354 3.78503 -8.30907e-012 -9.0191e-006 -5.27751e-005 61.2477 3.33547 20.2244 -179.554 -2.18992 -78.4846 -11.3802 4.05663 67.2137 -79.1684 -1.59028e-015 -3.18055e-015 -65.7909 -33.494 -77.994 -177.045 8.04292 69.7502 7.2791 3.00607 -57.0888 -55.5698 0 -1.59028e-015 -37.3486 41.778 38.7679 -29.8439 -6.729 -172.935 -47.0177 6.36111e-015 4.77083e-015 4.73907 6.19499 -6.53626 90 7.95139e-016 -0 -10.6417 5.78433 174.365 -16.4023 6.36111e-015 2.48481e-015 5.55373 -12.8139 14.2327 90 0 -6.36111e-015 
188.086 90.0141 179.881 -100.533 59.6641 -175.854 1.99044 -1.48883 1.61822 4.02412 -2.91946 3.28895 4.02412 -2.91946 3.28894 -8.30589e-012 -9.0191e-006 -5.27751e-005 61.2264 2.32938 19.3239 -179.406 -2.71155 -77.6488 -13.5353 -0.488513 64.5906 -80.2527 3.97569e-016 -0 -66.7685 -31.7196 -77.7219 -177.241 7.55442 69.8663 5.3817 1.21791 -57.1457 -64.3677 -3.18055e-015 -6.36111e-015 -37.709 40.1414 37.1192 -28.5073 -16.3332 -171.809 -39.9738 -6.36111e-015 3.18055e-015 3.96221 5.58696 -5.7939 90 0 3.18055e-015 -12.9391 9.47416 171.441 -18.7395 0 5.09386e-015 4.39554 -13.5393 14.9454 90 -7.95139e-016 3.18055e-015 
193.354 88.8432 178.31 -101.425 63.9579 -173.68 2.10842 -1.53293 1.17781 4.25015 -3.02067 2.41267 4.25015 -3.02067 2.41266 -8.30589e-012 -9.0191e-006 -5.27751e-005 60.7074 1.05199 18.1318 -179.418 -2.48061 -76.7954 -17.827 -3.82387 60.5212 -79.7734 4.67144e-015 -1.59028e-015 -66.941 -30.3071 -76.3049 -177.351 7.46925 70.4063 4.96951 0.448391 -58.1258 -72.1612 7.95139e-016 3.18055e-015 -39.0184 40.0937 38.387 -24.9185 -26.2481 -171.608 -37.3656 2.38542e-015 -1.59028e-015 4.58296 9.50212 -10.0747 90 -9.93923e-017 3.97569e-016 -13.5338 12.6144 167.305 -20.3473 0 -2.38542e-015 2.60691 -14.613 16.0875 90 -1.59028e-015 -0 
199.234 87.5996 176.786 -101.488 69.9258 -172.528 2.22336 -1.46612 0.878879 4.47111 -2.89638 1.81503 4.47111 -2.89638 1.81502 -8.30907e-012 -9.0191e-006 -5.27751e-005 61.0463 -0.656273 15.8316 -179.524 -1.82374 -75.3668 -23.1445 -5.26848 55.0499 -77.0017 3.18055e-015 -1.59028e-015 -64.5897 -31.1045 -71.9514 -177.487 7.22528 70.7644 5.3667 -0.0609008 -58.0732 -79.3326 3.18055e-015 3.18055e-015 -41.3833 41.9556 42.3048 -22.0785 -27.4405 -172.368 -38.6632 -2.78299e-015 -1.98785e-015 17.355 15.103 -16.8118 90 0 -0 -13.7817 14.4383 163.465 -20.3647 -6.36111e-015 -1.98785e-016 -1.44826 -13.5123 15.6006 90 -3.18055e-015 3.18055e-015 
205.048 86.9551 175.048 -105.414 76.0895 -168.723 2.15236 -1.6051 0.904614 4.33232 -3.17439 1.87014 4.33232 -3.17439 1.87013 -8.30907e-012 -9.0191e-006 -5.27751e-005 61.5576 -1.9016 12.087 -179.491 -2.01436 -75.8243 -27.0461 -6.517 52.8369 -69.9918 -3.97569e-015 3.18055e-015 -59.2552 -31.4562 -62.1467 -177.699 6.70654 71.0172 5.31371 -0.274999 -57.7468 -84.6391 1.49088e-015 -1.39149e-015 -44.1994 43.3082 46.6223 -23.3151 -16.5265 -173.958 -41.3673 2.48481e-016 5.34234e-016 24.0553 14.5146 -16.2694 90 2.98177e-016 -1.59028e-015 -17.5545 13.0477 162.315 -21.2522 3.18056e-015 -4.96962e-016 -7.03703 -6.70284 10.1943 90 2.38542e-015 -3.18055e-015 
210.393 87.3504 173.138 -119.52 81.5978 -154.853 1.97854 -1.88737 1.05303 3.99467 -3.73642 2.17254 3.99467 -3.73642 2.17253 -8.31225e-012 -9.0191e-006 -5.27751e-005 60.8074 -2.47494 7.48049 -179.465 -2.34535 -77.1484 -29.7291 -5.98557 52.9871 -61.4658 -1.59028e-015 -3.18055e-015 -55.0095 -32.0489 -57.9185 -177.639 6.97716 71.2539 4.17424 0.228624 -58.1943 -87.1909 -4.37326e-015 1.59028e-015 -45.2159 43.3764 48.0939 -25.0349 -11.0851 -175.722 -42.3925 3.97569e-016 7.95139e-016 23.4609 13.9708 -15.6866 90 -3.97569e-016 3.18055e-015 -22.1564 6.09096 163.659 -17.8228 3.18056e-015 -2.28602e-015 -15.5624 0.692831 0.668706 90 -5.96354e-016 1.59028e-015 
215.299 88.8838 172.05 177.628 87.793 -92.0978 2.2737 -1.85555 1.05066 4.5846 -3.66711 2.176 4.5846 -3.66712 2.17599 -8.30748e-012 -9.0191e-006 -5.27751e-005 59.981 -2.34805 3.10204 -179.53 -1.98056 -76.6397 -30.4081 -2.46559 52.5352 -53.5849 -3.18055e-015 -3.18055e-015 -52.3286 -34.7677 -57.4728 -177.511 7.19466 70.8617 2.54263 0.469295 -59.2587 -87.0897 1.59028e-015 6.36111e-015 -47.9402 43.1862 51.6162 -21.8237 -5.21365 -176.896 -39.0622 -3.97569e-016 -3.97569e-016 19.6524 11.9279 -13.2881 90 1.98785e-016 3.18055e-015 -21.5396 -2.56592 166.548 -12.0721 0 -3.08116e-015 -20.6036 -1.16882 1.12837 90 2.98177e-015 1.59028e-015 
219.809 91.1843 171.071 94.1219 82.1928 -8.94726 2.36483 -1.86563 1.00295 4.76569 -3.68749 2.08387 4.76569 -3.68749 2.08387 -8.30907e-012 -9.0191e-006 -5.27751e-005 59.7818 -2.62555 -1.53284 -179.37 -2.28487 -74.5914 -28.0158 1.94921 53.0316 -46.26 -3.18055e-015 9.54166e-015 -49.9675 -35.3962 -55.2359 -177.461 7.4108 71.0295 -0.852722 -0.0494896 -61.3093 -84.0366 1.59028e-015 -3.18055e-015 -50.4729 43.1424 55.7106 -17.2104 0.263432 -177.478 -31.3216 0 -1.98785e-016 12.7862 10.9464 -12.1622 90 -2.78299e-015 3.18055e-015 -21.5496 -10.0073 169.993 -14.9225 6.36111e-015 1.39149e-015 -14.0842 -8.61455 9.1953 90 -3.97569e-016 4.77083e-015 
